<?xml version="1.0" encoding="iso-8859-1"?>
<!-- Generator: Adobe Illustrator 19.0.0, SVG Export Plug-In . SVG Version: 6.00 Build 0)  -->
<svg version="1.1" id="Capa_1" xmlns="http://www.w3.org/2000/svg" xmlns:xlink="http://www.w3.org/1999/xlink" x="0px" y="0px"
	 viewBox="0 0 512.85 512.85" style="enable-background:new 0 0 512.85 512.85;" xml:space="preserve">
<path style="fill:#ffffff;" d="M361.293,256.85l82.923-122.965c26.81-38.76,17.123-91.914-21.637-118.724
	S330.665-1.962,303.855,36.797c-0.381,0.55-0.755,1.105-1.122,1.664l-78.592,116.523v-68.8c0-47.128-38.205-85.333-85.333-85.333
	S53.474,39.055,53.474,86.184v341.333c0,47.128,38.205,85.333,85.333,85.333s85.333-38.205,85.333-85.333v-68.8l78.592,116.501
	c12.616,18.804,32.225,31.785,54.464,36.053c5.42,1.05,10.927,1.579,16.448,1.579c47.128-0.094,85.257-38.375,85.163-85.504
	c-0.034-16.948-5.114-33.502-14.592-47.552L361.293,256.85z"/>
<g>
</g>
<g>
</g>
<g>
</g>
<g>
</g>
<g>
</g>
<g>
</g>
<g>
</g>
<g>
</g>
<g>
</g>
<g>
</g>
<g>
</g>
<g>
</g>
<g>
</g>
<g>
</g>
<g>
</g>
</svg>
